<svg width="169" height="32" viewBox="0 0 169 32" fill="none" xmlns="http://www.w3.org/2000/svg">
<path d="M39.1458 23.16C38.7324 23.16 38.4124 23.0467 38.1858 22.82C37.9724 22.58 37.8658 22.2533 37.8658 21.84V10.26C37.8658 9.82 37.9791 9.48667 38.2058 9.26C38.4458 9.02 38.7858 8.9 39.2258 8.9H48.7658C49.2058 8.9 49.5391 9.02 49.7658 9.26C50.0058 9.48667 50.1258 9.82 50.1258 10.26V21.84C50.1258 22.2533 50.0124 22.58 49.7858 22.82C49.5724 23.0467 49.2591 23.16 48.8458 23.16C48.4324 23.16 48.1124 23.0467 47.8858 22.82C47.6724 22.58 47.5658 22.2533 47.5658 21.84V11.04H40.4258V21.84C40.4258 22.2533 40.3191 22.58 40.1058 22.82C39.8924 23.0467 39.5724 23.16 39.1458 23.16ZM54.6183 26.76C54.2183 26.76 53.9116 26.6533 53.6983 26.44C53.4849 26.2267 53.3783 25.9133 53.3783 25.5V14.32C53.3783 13.9067 53.4849 13.5933 53.6983 13.38C53.9116 13.1667 54.2116 13.06 54.5983 13.06C54.9983 13.06 55.3049 13.1667 55.5183 13.38C55.7316 13.5933 55.8383 13.9067 55.8383 14.32V15.88L55.6183 15.28C55.8183 14.6 56.2249 14.0533 56.8383 13.64C57.4649 13.2267 58.1916 13.02 59.0183 13.02C59.8716 13.02 60.6183 13.2267 61.2583 13.64C61.9116 14.0533 62.4183 14.64 62.7783 15.4C63.1383 16.1467 63.3183 17.0467 63.3183 18.1C63.3183 19.14 63.1383 20.0467 62.7783 20.82C62.4183 21.58 61.9183 22.1667 61.2783 22.58C60.6383 22.9933 59.8849 23.2 59.0183 23.2C58.2049 23.2 57.4916 23 56.8783 22.6C56.2649 22.1867 55.8516 21.6533 55.6383 21H55.8783V25.5C55.8783 25.9133 55.7649 26.2267 55.5383 26.44C55.3249 26.6533 55.0183 26.76 54.6183 26.76ZM58.3183 21.3C58.8116 21.3 59.2449 21.18 59.6183 20.94C59.9916 20.7 60.2783 20.3467 60.4783 19.88C60.6916 19.4 60.7983 18.8067 60.7983 18.1C60.7983 17.0333 60.5716 16.24 60.1183 15.72C59.6649 15.1867 59.0649 14.92 58.3183 14.92C57.8249 14.92 57.3916 15.04 57.0183 15.28C56.6449 15.5067 56.3516 15.86 56.1383 16.34C55.9383 16.8067 55.8383 17.3933 55.8383 18.1C55.8383 19.1533 56.0649 19.9533 56.5183 20.5C56.9716 21.0333 57.5716 21.3 58.3183 21.3ZM69.1834 23.2C68.4768 23.2 67.8434 23.0667 67.2834 22.8C66.7368 22.52 66.3034 22.1467 65.9834 21.68C65.6768 21.2133 65.5234 20.6867 65.5234 20.1C65.5234 19.38 65.7101 18.8133 66.0834 18.4C66.4568 17.9733 67.0634 17.6667 67.9034 17.48C68.7434 17.2933 69.8701 17.2 71.2834 17.2H72.2834V18.64H71.3034C70.4768 18.64 69.8168 18.68 69.3234 18.76C68.8301 18.84 68.4768 18.98 68.2634 19.18C68.0634 19.3667 67.9634 19.6333 67.9634 19.98C67.9634 20.42 68.1168 20.78 68.4234 21.06C68.7301 21.34 69.1568 21.48 69.7034 21.48C70.1434 21.48 70.5301 21.38 70.8634 21.18C71.2101 20.9667 71.4834 20.68 71.6834 20.32C71.8834 19.96 71.9834 19.5467 71.9834 19.08V16.78C71.9834 16.1133 71.8368 15.6333 71.5434 15.34C71.2501 15.0467 70.7568 14.9 70.0634 14.9C69.6768 14.9 69.2568 14.9467 68.8034 15.04C68.3634 15.1333 67.8968 15.2933 67.4034 15.52C67.1501 15.64 66.9234 15.6733 66.7234 15.62C66.5368 15.5667 66.3901 15.46 66.2834 15.3C66.1768 15.1267 66.1234 14.94 66.1234 14.74C66.1234 14.54 66.1768 14.3467 66.2834 14.16C66.3901 13.96 66.5701 13.8133 66.8234 13.72C67.4368 13.4667 68.0234 13.2867 68.5834 13.18C69.1568 13.0733 69.6768 13.02 70.1434 13.02C71.1034 13.02 71.8901 13.1667 72.5034 13.46C73.1301 13.7533 73.5968 14.2 73.9034 14.8C74.2101 15.3867 74.3634 16.1467 74.3634 17.08V21.88C74.3634 22.2933 74.2634 22.6133 74.0634 22.84C73.8634 23.0533 73.5768 23.16 73.2034 23.16C72.8301 23.16 72.5368 23.0533 72.3234 22.84C72.1234 22.6133 72.0234 22.2933 72.0234 21.88V20.92H72.1834C72.0901 21.3867 71.9034 21.7933 71.6234 22.14C71.3568 22.4733 71.0168 22.7333 70.6034 22.92C70.1901 23.1067 69.7168 23.2 69.1834 23.2ZM78.7144 23.16C78.3144 23.16 78.001 23.0533 77.7744 22.84C77.561 22.6133 77.4544 22.2933 77.4544 21.88V14.32C77.4544 13.8933 77.561 13.58 77.7744 13.38C78.001 13.1667 78.3144 13.06 78.7144 13.06C79.1144 13.06 79.421 13.1667 79.6344 13.38C79.8477 13.58 79.9544 13.8933 79.9544 14.32V17H84.2744V14.32C84.2744 13.8933 84.381 13.58 84.5944 13.38C84.8077 13.1667 85.1144 13.06 85.5144 13.06C85.9144 13.06 86.221 13.1667 86.4344 13.38C86.661 13.58 86.7744 13.8933 86.7744 14.32V21.88C86.7744 22.2933 86.661 22.6133 86.4344 22.84C86.221 23.0533 85.9144 23.16 85.5144 23.16C85.1144 23.16 84.8077 23.0533 84.5944 22.84C84.381 22.6133 84.2744 22.2933 84.2744 21.88V18.96H79.9544V21.88C79.9544 22.2933 79.8477 22.6133 79.6344 22.84C79.4344 23.0533 79.1277 23.16 78.7144 23.16ZM91.1823 23.16C90.7823 23.16 90.469 23.0533 90.2423 22.84C90.029 22.6133 89.9223 22.2933 89.9223 21.88V14.36C89.9223 13.9467 90.029 13.6333 90.2423 13.42C90.469 13.1933 90.7823 13.08 91.1823 13.08C91.5823 13.08 91.889 13.1933 92.1023 13.42C92.3157 13.6333 92.4223 13.9467 92.4223 14.36V17.02H93.8423L96.3423 13.66C96.529 13.4067 96.7423 13.2467 96.9823 13.18C97.2223 13.1 97.449 13.0933 97.6623 13.16C97.889 13.2267 98.069 13.3467 98.2023 13.52C98.349 13.6933 98.4223 13.9 98.4223 14.14C98.4357 14.3667 98.349 14.6067 98.1623 14.86L95.7823 18.12L95.2423 17.32C95.6023 17.36 95.9223 17.46 96.2023 17.62C96.4957 17.78 96.7623 18.0067 97.0023 18.3C97.2557 18.58 97.5023 18.9333 97.7423 19.36L98.9223 21.46C99.0823 21.74 99.1357 22 99.0823 22.24C99.0423 22.4667 98.929 22.66 98.7423 22.82C98.569 22.98 98.3623 23.08 98.1223 23.12C97.8823 23.16 97.6423 23.1267 97.4023 23.02C97.1757 22.9267 96.9823 22.74 96.8223 22.46L95.4823 20.12C95.309 19.8133 95.1357 19.58 94.9623 19.42C94.8023 19.2467 94.6157 19.1267 94.4023 19.06C94.2023 18.9933 93.9557 18.96 93.6623 18.96H92.4223V21.88C92.4223 22.2933 92.3157 22.6133 92.1023 22.84C91.889 23.0533 91.5823 23.16 91.1823 23.16Z" fill="#212444"/>
<rect width="2.5" height="7" rx="1.25" transform="matrix(-1 0 0 1 126.5 12.5)" fill="#4B2EFF"/>
<rect width="2.5" height="15" rx="1.25" transform="matrix(-1 0 0 1 122 8.5)" fill="#4B2EFF"/>
<rect width="2.5" height="12" rx="1.25" transform="matrix(-1 0 0 1 117.5 10)" fill="#4B2EFF"/>
<rect width="2.5" height="16" rx="1.25" transform="matrix(-1 0 0 1 113 8)" fill="#4B2EFF"/>
<rect width="2.5" height="9" rx="1.25" transform="matrix(-1 0 0 1 108.5 11.5)" fill="#4B2EFF"/>
<path d="M135.746 23C135.306 23 134.966 22.8867 134.726 22.66C134.5 22.42 134.386 22.08 134.386 21.64V10.26C134.386 9.82 134.5 9.48667 134.726 9.26C134.966 9.02 135.306 8.9 135.746 8.9H143.306C143.64 8.9 143.893 8.98667 144.066 9.16C144.253 9.33333 144.346 9.58 144.346 9.9C144.346 10.2333 144.253 10.4933 144.066 10.68C143.893 10.8533 143.64 10.94 143.306 10.94H136.846V14.78H140.766C142.273 14.78 143.446 15.1267 144.286 15.82C145.14 16.5133 145.566 17.5333 145.566 18.88C145.566 20.2133 145.14 21.2333 144.286 21.94C143.446 22.6467 142.273 23 140.766 23H135.746ZM136.846 20.96H140.446C141.353 20.96 142.02 20.7933 142.446 20.46C142.873 20.1133 143.086 19.5867 143.086 18.88C143.086 18.1733 142.873 17.6533 142.446 17.32C142.02 16.9867 141.353 16.82 140.446 16.82H136.846V20.96ZM152.504 23.2C151.49 23.2 150.61 22.9933 149.864 22.58C149.117 22.1667 148.537 21.58 148.124 20.82C147.71 20.0467 147.504 19.14 147.504 18.1C147.504 17.3133 147.617 16.6133 147.844 16C148.084 15.3733 148.424 14.84 148.864 14.4C149.304 13.9467 149.83 13.6067 150.444 13.38C151.057 13.14 151.744 13.02 152.504 13.02C153.517 13.02 154.397 13.2267 155.144 13.64C155.89 14.0533 156.47 14.64 156.884 15.4C157.297 16.16 157.504 17.06 157.504 18.1C157.504 18.8867 157.384 19.5933 157.144 20.22C156.917 20.8467 156.584 21.3867 156.144 21.84C155.704 22.28 155.177 22.62 154.564 22.86C153.95 23.0867 153.264 23.2 152.504 23.2ZM152.504 21.3C152.997 21.3 153.43 21.18 153.804 20.94C154.177 20.7 154.464 20.3467 154.664 19.88C154.877 19.4 154.984 18.8067 154.984 18.1C154.984 17.0333 154.757 16.24 154.304 15.72C153.85 15.1867 153.25 14.92 152.504 14.92C152.01 14.92 151.577 15.04 151.204 15.28C150.83 15.5067 150.537 15.86 150.324 16.34C150.124 16.8067 150.024 17.3933 150.024 18.1C150.024 19.1533 150.25 19.9533 150.704 20.5C151.157 21.0333 151.757 21.3 152.504 21.3ZM163.44 23.16C163.04 23.16 162.727 23.0533 162.5 22.84C162.287 22.6133 162.18 22.2933 162.18 21.88V15.18H159.74C159.02 15.18 158.66 14.8533 158.66 14.2C158.66 13.8933 158.754 13.6533 158.94 13.48C159.14 13.3067 159.407 13.22 159.74 13.22H167.12C167.84 13.22 168.2 13.5467 168.2 14.2C168.2 14.52 168.107 14.7667 167.92 14.94C167.734 15.1 167.467 15.18 167.12 15.18H164.68V21.88C164.68 22.2933 164.574 22.6133 164.36 22.84C164.16 23.0533 163.854 23.16 163.44 23.16Z" fill="#212444"/>
<path fill-rule="evenodd" clip-rule="evenodd" d="M23.875 1.875C23.875 1.39175 23.4832 1 23 1C22.5168 1 22.125 1.39175 22.125 1.875V6.53465C22.125 6.76279 21.9652 6.95462 21.7663 7.06637C21.309 7.32333 21 7.81308 21 8.375V9.10539C19.235 8.08437 17.1857 7.5 15 7.5H13C10.8143 7.5 8.76504 8.08437 7 9.10539V8.375C7 7.81308 6.69102 7.32333 6.23369 7.06637C6.03479 6.95462 5.875 6.76279 5.875 6.53465V1.875C5.875 1.39175 5.48325 1 5 1C4.51675 1 4.125 1.39175 4.125 1.875V6.53465C4.125 6.76279 3.96521 6.95462 3.76631 7.06637C3.30898 7.32333 3 7.81308 3 8.375V12.8644C1.73631 14.765 1 17.0465 1 19.5V25C1 28.3137 3.68629 31 7 31H21C24.3137 31 27 28.3137 27 25V19.5C27 17.0465 26.2637 14.765 25 12.8644V8.375C25 7.81308 24.691 7.32333 24.2337 7.06637C24.0348 6.95462 23.875 6.76279 23.875 6.53465V1.875ZM4.5 20C4.5 15.5817 8.08172 12 12.5 12H15.5C19.9183 12 23.5 15.5817 23.5 20V24.5C23.5 26.1569 22.1569 27.5 20.5 27.5H7.5C5.84315 27.5 4.5 26.1569 4.5 24.5V20ZM17.8766 22.9899C18.0128 22.4547 17.5523 22 17 22H14H11C10.4477 22 9.98717 22.4547 10.1234 22.9899C10.5639 24.7202 12.1325 26 14 26C15.8675 26 17.4361 24.7202 17.8766 22.9899ZM20.5 19.625C20.0168 19.625 19.625 19.2332 19.625 18.75C19.625 18.1287 19.1213 17.625 18.5 17.625C17.8787 17.625 17.375 18.1287 17.375 18.75C17.375 19.2332 16.9832 19.625 16.5 19.625C16.0168 19.625 15.625 19.2332 15.625 18.75C15.625 17.1622 16.9122 15.875 18.5 15.875C20.0878 15.875 21.375 17.1622 21.375 18.75C21.375 19.2332 20.9832 19.625 20.5 19.625ZM10.625 18.75C10.625 19.2332 11.0168 19.625 11.5 19.625C11.9832 19.625 12.375 19.2332 12.375 18.75C12.375 17.1622 11.0878 15.875 9.5 15.875C7.91218 15.875 6.625 17.1622 6.625 18.75C6.625 19.2332 7.01675 19.625 7.5 19.625C7.98325 19.625 8.375 19.2332 8.375 18.75C8.375 18.1287 8.87868 17.625 9.5 17.625C10.1213 17.625 10.625 18.1287 10.625 18.75Z" fill="#4B2EFF"/>
</svg>
