<svg width="18" height="18" viewBox="0 0 18 18" fill="none" xmlns="http://www.w3.org/2000/svg">
<path fill-rule="evenodd" clip-rule="evenodd" d="M14.6999 9C14.6999 12.148 12.1479 14.7 8.99988 14.7C5.85185 14.7 3.29988 12.148 3.29988 9C3.29988 5.85198 5.85185 3.3 8.99988 3.3C12.1479 3.3 14.6999 5.85198 14.6999 9ZM16.4999 9C16.4999 13.1421 13.142 16.5 8.99988 16.5C4.85774 16.5 1.49988 13.1421 1.49988 9C1.49988 4.85786 4.85774 1.5 8.99988 1.5C13.142 1.5 16.4999 4.85786 16.4999 9ZM11.8863 8.3864C12.2377 8.03492 12.2377 7.46508 11.8863 7.1136C11.5348 6.76213 10.965 6.76213 10.6135 7.1136L8.24988 9.47721L7.38627 8.6136C7.0348 8.26213 6.46495 8.26213 6.11348 8.6136C5.76201 8.96508 5.76201 9.53492 6.11348 9.8864L7.61348 11.3864C7.96495 11.7379 8.5348 11.7379 8.88627 11.3864L11.8863 8.3864Z" fill="#4B2EFF"/>
</svg>
