<svg width="18" height="18" viewBox="0 0 18 18" fill="none" xmlns="http://www.w3.org/2000/svg">
<path fill-rule="evenodd" clip-rule="evenodd" d="M8.1 1.99998C8.1 1.50292 8.50294 1.09998 9 1.09998C13.363 1.09998 16.9 4.63693 16.9 8.99998C16.9 9.49703 16.4971 9.89998 16 9.89998C15.5029 9.89998 15.1 9.49703 15.1 8.99998C15.1 5.63104 12.3689 2.89998 9 2.89998C8.50294 2.89998 8.1 2.49703 8.1 1.99998ZM11.3168 12.0181L10.8935 12.653C10.8091 12.7797 10.6973 12.8878 10.5501 12.9267C10.0678 13.0542 8.78728 13.1117 6.83778 11.1622C4.88828 9.21271 4.94582 7.93221 5.07326 7.44989C5.11217 7.30264 5.2203 7.19091 5.34702 7.10643L5.9819 6.68318C6.45458 6.36806 6.58231 5.72942 6.26719 5.25674L5.06811 3.45813C4.79306 3.04555 4.26282 2.88793 3.80705 3.08325L3.26615 3.31507C2.85525 3.49117 2.52006 3.80722 2.32013 4.20707C2.1531 4.54114 2.02364 4.89293 2.0061 5.26601C1.95082 6.44174 2.20863 9.33839 5.43512 12.5649C8.6616 15.7914 11.5582 16.0492 12.734 15.9939C13.107 15.9763 13.4588 15.8469 13.7929 15.6798C14.1928 15.4799 14.5088 15.1447 14.6849 14.7338L14.9167 14.1929C15.1121 13.7372 14.9544 13.2069 14.5418 12.9319L12.7432 11.7328C12.2706 11.4177 11.6319 11.5454 11.3168 12.0181ZM9 4.09998C8.50294 4.09998 8.1 4.50292 8.1 4.99998C8.1 5.49703 8.50294 5.89998 9 5.89998C10.7121 5.89998 12.1 7.28789 12.1 8.99998C12.1 9.49703 12.5029 9.89998 13 9.89998C13.4971 9.89998 13.9 9.49703 13.9 8.99998C13.9 6.29378 11.7062 4.09998 9 4.09998Z" fill="#2CC633"/>
</svg>
