<svg width="18" height="18" viewBox="0 0 18 18" fill="none" xmlns="http://www.w3.org/2000/svg">
<path fill-rule="evenodd" clip-rule="evenodd" d="M14.9125 6.92248L11.0775 3.08743C12.1512 2.45327 13.5573 2.59747 14.4799 3.52003C15.4025 4.44258 15.5467 5.84874 14.9125 6.92248ZM10.0875 4.07738L13.9225 7.91243C12.8488 8.54658 11.4427 8.40238 10.5201 7.47983C9.59755 6.55727 9.45335 5.15111 10.0875 4.07738ZM15.4698 2.53008C13.8296 0.889876 11.1704 0.889876 9.53015 2.53008C7.88995 4.17028 7.88995 6.82957 9.53015 8.46978C11.1704 10.11 13.8296 10.11 15.4698 8.46978C17.1101 6.82957 17.1101 4.17028 15.4698 2.53008ZM10.8935 12.653L11.3168 12.0181C11.6319 11.5454 12.2706 11.4177 12.7432 11.7328L14.5418 12.9319C14.9544 13.2069 15.1121 13.7372 14.9167 14.1929L14.6849 14.7338C14.5088 15.1447 14.1928 15.4799 13.7929 15.6799C13.4588 15.8469 13.107 15.9763 12.734 15.9939C11.5582 16.0492 8.6616 15.7914 5.43511 12.5649C2.20863 9.3384 1.95082 6.44175 2.0061 5.26602C2.02364 4.89294 2.1531 4.54115 2.32013 4.20708C2.52006 3.80723 2.85525 3.49118 3.26615 3.31508L3.80705 3.08326C4.26282 2.88794 4.79306 3.04556 5.06811 3.45814L6.26719 5.25675C6.58231 5.72943 6.45458 6.36807 5.9819 6.68319L5.34702 7.10644C5.2203 7.19092 5.11217 7.30265 5.07326 7.4499C4.94582 7.93222 4.88828 9.21272 6.83778 11.1622C8.78728 13.1117 10.0678 13.0542 10.5501 12.9267C10.6973 12.8878 10.8091 12.7797 10.8935 12.653Z" fill="#F47127"/>
</svg>
