<svg width="18" height="18" viewBox="0 0 18 18" fill="none" xmlns="http://www.w3.org/2000/svg">
<path fill-rule="evenodd" clip-rule="evenodd" d="M8.99988 14.7C12.1479 14.7 14.6999 12.148 14.6999 9C14.6999 5.85198 12.1479 3.3 8.99988 3.3C5.85185 3.3 3.29988 5.85198 3.29988 9C3.29988 12.148 5.85185 14.7 8.99988 14.7ZM8.99988 16.5C13.142 16.5 16.4999 13.1421 16.4999 9C16.4999 4.85786 13.142 1.5 8.99988 1.5C4.85774 1.5 1.49988 4.85786 1.49988 9C1.49988 13.1421 4.85774 16.5 8.99988 16.5ZM8.99988 4.9C9.49693 4.9 9.89988 5.30294 9.89988 5.8L9.89988 9.4C9.89988 9.89706 9.49693 10.3 8.99988 10.3C8.50282 10.3 8.09988 9.89706 8.09988 9.4L8.09988 5.8C8.09988 5.30294 8.50282 4.9 8.99988 4.9ZM7.99988 12.25C7.99988 12.8023 8.44759 13.25 8.99988 13.25C9.55216 13.25 9.99988 12.8023 9.99988 12.25V12.24C9.99988 11.6877 9.55216 11.24 8.99988 11.24C8.44759 11.24 7.99988 11.6877 7.99988 12.24V12.25Z" fill="#FC3A3A"/>
</svg>
