<svg width="18" height="18" viewBox="0 0 18 18" fill="none" xmlns="http://www.w3.org/2000/svg">
<path d="M12.0335 11.7118L11.5777 12.3955C11.4867 12.532 11.3664 12.6484 11.2078 12.6903C10.6884 12.8276 9.30938 12.8896 7.20992 10.7901C5.11045 8.69064 5.17242 7.31164 5.30967 6.79222C5.35157 6.63364 5.46801 6.51332 5.60448 6.42234L6.2882 5.96653C6.79724 5.62717 6.93479 4.9394 6.59543 4.43036L5.30412 2.4934C5.00791 2.04908 4.43688 1.87933 3.94606 2.08968L3.36355 2.33933C2.92103 2.52898 2.56007 2.86934 2.34476 3.29995C2.16488 3.65971 2.02546 4.03856 2.00657 4.44034C1.94704 5.70652 2.22468 8.82599 5.69935 12.3007C9.17403 15.7753 12.2935 16.053 13.5597 15.9934C13.9614 15.9745 14.3403 15.8351 14.7 15.6552C15.1307 15.4399 15.471 15.079 15.6607 14.6365L15.9103 14.0539C16.1207 13.5631 15.9509 12.9921 15.5066 12.6959L13.5696 11.4046C13.0606 11.0652 12.3728 11.2028 12.0335 11.7118Z" fill="#2CC633"/>
</svg>
