<svg width="20" height="20" viewBox="0 0 20 20" fill="none" xmlns="http://www.w3.org/2000/svg">
<path fill-rule="evenodd" clip-rule="evenodd" d="M9 4C9 3.44772 8.55228 3 8 3C7.44772 3 7 3.44772 7 4V16C7 16.5523 7.44772 17 8 17C8.55228 17 9 16.5523 9 16V4ZM5 6C5 5.44772 4.55228 5 4 5C3.44772 5 3 5.44772 3 6V14C3 14.5523 3.44772 15 4 15C4.55228 15 5 14.5523 5 14V6ZM12 6C12.5523 6 13 6.44772 13 7V13C13 13.5523 12.5523 14 12 14C11.4477 14 11 13.5523 11 13V7C11 6.44772 11.4477 6 12 6ZM17 6C17 5.44772 16.5523 5 16 5C15.4477 5 15 5.44772 15 6V14C15 14.5523 15.4477 15 16 15C16.5523 15 17 14.5523 17 14V6Z" fill="#2E3755" fill-opacity="0.35"/>
</svg>
