<svg width="16" height="16" viewBox="0 0 16 16" fill="none" xmlns="http://www.w3.org/2000/svg">
<path fill-rule="evenodd" clip-rule="evenodd" d="M2.40013 12.76C2.40013 12.2961 2.7583 11.92 3.20013 11.92H12.8001C13.242 11.92 13.6001 12.2961 13.6001 12.76C13.6001 13.224 13.242 13.6 12.8001 13.6H3.20013C2.7583 13.6 2.40013 13.224 2.40013 12.76Z" fill="#4B2EFF"/>
<path fill-rule="evenodd" clip-rule="evenodd" d="M8 2.17505C8.45564 2.17505 8.825 2.54441 8.825 3.00005V8.00832L10.9166 5.91669C11.2388 5.5945 11.7612 5.5945 12.0834 5.91669C12.4055 6.23887 12.4055 6.76123 12.0834 7.08341L8.58336 10.5834C8.26118 10.9056 7.73882 10.9056 7.41664 10.5834L3.91664 7.08341C3.59446 6.76123 3.59446 6.23887 3.91664 5.91669C4.23882 5.5945 4.76118 5.5945 5.08336 5.91669L7.175 8.00832V3.00005C7.175 2.54441 7.54437 2.17505 8 2.17505Z" fill="#4B2EFF"/>
</svg>
