<svg width="20" height="20" viewBox="0 0 20 20" fill="none" xmlns="http://www.w3.org/2000/svg">
<path fill-rule="evenodd" clip-rule="evenodd" d="M7.04741 5.80997L14.19 12.9526C15.6031 10.9523 15.4144 8.16658 13.6239 6.37608C11.8334 4.58557 9.04769 4.39687 7.04741 5.80997ZM12.9526 14.19L5.80997 7.04741C4.39687 9.04769 4.58557 11.8334 6.37608 13.6239C8.16658 15.4144 10.9523 15.6031 12.9526 14.19ZM5.13864 5.13864C7.8235 2.45379 12.1765 2.45379 14.8614 5.13864C17.5462 7.8235 17.5462 12.1765 14.8614 14.8614C12.1765 17.5462 7.8235 17.5462 5.13864 14.8614C2.45379 12.1765 2.45379 7.8235 5.13864 5.13864Z" fill="#2E3755" fill-opacity="0.35"/>
</svg>
