<svg width="20" height="20" viewBox="0 0 20 20" fill="none" xmlns="http://www.w3.org/2000/svg">
<path fill-rule="evenodd" clip-rule="evenodd" d="M3.00015 15.95C3.00015 15.3701 3.44787 14.9 4.00015 14.9H16.0002C16.5524 14.9 17.0002 15.3701 17.0002 15.95C17.0002 16.5299 16.5524 17 16.0002 17H4.00015C3.44787 17 3.00015 16.5299 3.00015 15.95Z" fill="#4B2EFF"/>
<path fill-rule="evenodd" clip-rule="evenodd" d="M5.05769 7.50754C4.64764 7.91759 4.64764 8.58241 5.05769 8.99246C5.46774 9.40251 6.13256 9.40251 6.54261 8.99246L8.59166 6.94342C8.72395 6.81112 8.95015 6.90482 8.95015 7.09191V12.45C8.95015 13.0299 9.42025 13.5 10.0002 13.5C10.5801 13.5 11.0502 13.0299 11.0502 12.45V7.09191C11.0502 6.90482 11.2764 6.81112 11.4086 6.94342L13.4577 8.99246C13.8677 9.40251 14.5326 9.40251 14.9426 8.99246C15.3527 8.58241 15.3527 7.91759 14.9426 7.50754L10.7426 3.30754C10.3326 2.89749 9.66774 2.89749 9.25769 3.30754L5.05769 7.50754Z" fill="#4B2EFF"/>
</svg>
